<svg width="183" height="192" viewBox="0 0 183 192" fill="none" xmlns="http://www.w3.org/2000/svg">
<path d="M-17.7 192C-35.3 192 -50.25 185.84 -62.55 173.521C-74.85 161.202 -81 146.228 -81 128.601C-81 112.977 -76 99.2551 -66 87.4366C-56 75.6181 -43.3 68.507 -27.9 66.1033C-23.9 46.6729 -14.5 30.7981 0.300003 18.4789C15.1 6.15962 32.2 0 51.6 0C74 0 92.9 8.16275 108.3 24.4883C123.7 40.8138 131.4 60.3944 131.4 83.23V90.4413C145.8 90.0407 158 94.698 168 104.413C178 114.128 183 126.397 183 141.221C183 155.042 178 166.961 168 176.977C158 186.992 146.1 192 132.3 192H-17.7ZM-17.7 173.972H132.3C141.3 173.972 149 170.767 155.4 164.357C161.8 157.947 165 150.235 165 141.221C165 132.207 161.8 124.495 155.4 118.085C149 111.674 141.3 108.469 132.3 108.469H113.4V83.23C113.4 65.0016 107.3 49.5775 95.1 36.9577C82.9 24.338 68 18.0282 50.4 18.0282C32.8 18.0282 17.85 24.338 5.55 36.9577C-6.75001 49.5775 -12.9 65.0016 -12.9 83.23H-18.6C-31 83.23 -41.5 87.5869 -50.1 96.3005C-58.7 105.014 -63 115.781 -63 128.601C-63 141.221 -58.6 151.937 -49.8 160.751C-41 169.565 -30.3 173.972 -17.7 173.972Z" fill="black" fill-opacity="0.1"/>
</svg>
