<svg width="240" height="192" viewBox="0 0 240 192" fill="none" xmlns="http://www.w3.org/2000/svg">
<path d="M63.3 192C45.7 192 30.75 185.84 18.45 173.521C6.15 161.202 0 146.228 0 128.601C0 112.977 5 99.2551 15 87.4366C25 75.6181 37.7 68.507 53.1 66.1033C57.1 46.6729 66.5 30.7981 81.3 18.4789C96.1 6.15962 113.2 0 132.6 0C155 0 173.9 8.16275 189.3 24.4883C204.7 40.8138 212.4 60.3944 212.4 83.23V90.4413C226.8 90.0407 239 94.698 249 104.413C259 114.128 264 126.397 264 141.221C264 155.042 259 166.961 249 176.977C239 186.992 227.1 192 213.3 192H63.3ZM63.3 173.972H213.3C222.3 173.972 230 170.767 236.4 164.357C242.8 157.947 246 150.235 246 141.221C246 132.207 242.8 124.495 236.4 118.085C230 111.674 222.3 108.469 213.3 108.469H194.4V83.23C194.4 65.0016 188.3 49.5775 176.1 36.9577C163.9 24.338 149 18.0282 131.4 18.0282C113.8 18.0282 98.85 24.338 86.55 36.9577C74.25 49.5775 68.1 65.0016 68.1 83.23H62.4C50 83.23 39.5 87.5869 30.9 96.3005C22.3 105.014 18 115.781 18 128.601C18 141.221 22.4 151.937 31.2 160.751C40 169.565 50.7 173.972 63.3 173.972Z" fill="black" fill-opacity="0.1"/>
</svg>
