<svg width="40" height="42" viewBox="0 0 40 42" fill="none" xmlns="http://www.w3.org/2000/svg">
<path d="M8 34C7.53333 34 7.125 33.825 6.775 33.475C6.425 33.125 6.25 32.7167 6.25 32.25C6.25 31.7833 6.425 31.375 6.775 31.025C7.125 30.675 7.53333 30.5 8 30.5C8.46667 30.5 8.875 30.675 9.225 31.025C9.575 31.375 9.75 31.7833 9.75 32.25C9.75 32.7167 9.575 33.125 9.225 33.475C8.875 33.825 8.46667 34 8 34ZM32 34C31.5333 34 31.125 33.825 30.775 33.475C30.425 33.125 30.25 32.7167 30.25 32.25C30.25 31.7833 30.425 31.375 30.775 31.025C31.125 30.675 31.5333 30.5 32 30.5C32.4667 30.5 32.875 30.675 33.225 31.025C33.575 31.375 33.75 31.7833 33.75 32.25C33.75 32.7167 33.575 33.125 33.225 33.475C32.875 33.825 32.4667 34 32 34ZM14 42C13.5333 42 13.125 41.825 12.775 41.475C12.425 41.125 12.25 40.7167 12.25 40.25C12.25 39.7833 12.425 39.375 12.775 39.025C13.125 38.675 13.5333 38.5 14 38.5C14.4667 38.5 14.875 38.675 15.225 39.025C15.575 39.375 15.75 39.7833 15.75 40.25C15.75 40.7167 15.575 41.125 15.225 41.475C14.875 41.825 14.4667 42 14 42ZM20 34C19.5333 34 19.125 33.825 18.775 33.475C18.425 33.125 18.25 32.7167 18.25 32.25C18.25 31.7833 18.425 31.375 18.775 31.025C19.125 30.675 19.5333 30.5 20 30.5C20.4667 30.5 20.875 30.675 21.225 31.025C21.575 31.375 21.75 31.7833 21.75 32.25C21.75 32.7167 21.575 33.125 21.225 33.475C20.875 33.825 20.4667 34 20 34ZM26 42C25.5333 42 25.125 41.825 24.775 41.475C24.425 41.125 24.25 40.7167 24.25 40.25C24.25 39.7833 24.425 39.375 24.775 39.025C25.125 38.675 25.5333 38.5 26 38.5C26.4667 38.5 26.875 38.675 27.225 39.025C27.575 39.375 27.75 39.7833 27.75 40.25C27.75 40.7167 27.575 41.125 27.225 41.475C26.875 41.825 26.4667 42 26 42ZM10.5 27C7.6 27 5.125 25.975 3.075 23.925C1.025 21.875 0 19.4 0 16.5C0 13.8667 0.941666 11.5167 2.825 9.45C4.70833 7.38333 7.05 6.25 9.85 6.05C10.9167 4.18333 12.325 2.70833 14.075 1.625C15.825 0.541667 17.8 0 20 0C23.0333 0 25.575 0.958333 27.625 2.875C29.675 4.79167 30.9333 7.16667 31.4 10C34.0333 10.1333 36.125 11.025 37.675 12.675C39.225 14.325 40 16.2667 40 18.5C40 20.8333 39.175 22.8333 37.525 24.5C35.875 26.1667 33.8667 27 31.5 27H10.5ZM10.5 24H31.5C33.0333 24 34.3333 23.4583 35.4 22.375C36.4667 21.2917 37 19.9833 37 18.45C37 16.95 36.4667 15.6667 35.4 14.6C34.3333 13.5333 33.0333 13 31.5 13H28.5V11.5C28.5 9.13333 27.675 7.125 26.025 5.475C24.375 3.825 22.3667 3 20 3C18.3 3 16.7417 3.45833 15.325 4.375C13.9083 5.29167 12.8667 6.53333 12.2 8.1L11.8 9H10.4C8.33333 9.06667 6.58333 9.825 5.15 11.275C3.71667 12.725 3 14.4667 3 16.5C3 18.5667 3.73333 20.3333 5.2 21.8C6.66667 23.2667 8.43333 24 10.5 24Z" fill="white"/>
</svg>
